{
	"asset":{
		"generator":"Khronos glTF Blender I/O v4.2.57",
		"version":"2.0"
	},
	"scene":0,
	"scenes":[
		{
			"name":"Scene",
			"nodes":[
				0
			]
		}
	],
	"nodes":[
		{
			"mesh":0,
			"name":"o.001",
			"rotation":[
				0.7027751803398132,
				0,
				0,
				0.7114120125770569
			],
			"scale":[
				51.52145767211914,
				13.582019805908203,
				51.514713287353516
			],
			"translation":[
				0.003802638500928879,
				-0.11419868469238281,
				-0.0319366455078125
			]
		}
	],
	"materials":[
		{
			"doubleSided":true,
			"name":"Transparent Translucent Crystal Glass"
		}
	],
	"meshes":[
		{
			"name":"Curve",
			"primitives":[
				{
					"attributes":{
						"POSITION":0,
						"NORMAL":1,
						"TEXCOORD_0":2,
						"TEXCOORD_1":3
					},
					"indices":4,
					"material":0
				}
			]
		}
	],
	"accessors":[
		{
			"bufferView":0,
			"componentType":5126,
			"count":46988,
			"max":[
				0.13523848354816437,
				0.07048797607421875,
				0.1340874433517456
			],
			"min":[
				-0.1372554451227188,
				-0.0705118179321289,
				-0.09398913383483887
			],
			"type":"VEC3"
		},
		{
			"bufferView":1,
			"componentType":5126,
			"count":46988,
			"type":"VEC3"
		},
		{
			"bufferView":2,
			"componentType":5126,
			"count":46988,
			"type":"VEC2"
		},
		{
			"bufferView":3,
			"componentType":5126,
			"count":46988,
			"type":"VEC2"
		},
		{
			"bufferView":4,
			"componentType":5123,
			"count":207432,
			"type":"SCALAR"
		}
	],
	"bufferViews":[
		{
			"buffer":0,
			"byteLength":563856,
			"byteOffset":0,
			"target":34962
		},
		{
			"buffer":0,
			"byteLength":563856,
			"byteOffset":563856,
			"target":34962
		},
		{
			"buffer":0,
			"byteLength":375904,
			"byteOffset":1127712,
			"target":34962
		},
		{
			"buffer":0,
			"byteLength":375904,
			"byteOffset":1503616,
			"target":34962
		},
		{
			"buffer":0,
			"byteLength":414864,
			"byteOffset":1879520,
			"target":34963
		}
	],
	"buffers":[
		{
			"byteLength":2294384,
			"uri":"compass_web_reworked.bin"
		}
	]
}
